<?xml version="1.0" encoding="UTF-8"?>
<!DOCTYPE svg PUBLIC "-//W3C//DTD SVG 1.0//EN" "http://www.w3.org/TR/2001/REC-SVG-20010904/DTD/svg10.dtd">
<svg width="85mm" height="120mm" viewBox="0 0 8500 12000" version="1.1" xmlns="http://www.w3.org/2000/svg">
  <defs>
    <style type="text/css">
      <![CDATA[
         rect  { stroke-width:200; }
         path  { stroke-width:200; }
         .penblack   { fill:none; stroke:rgb(0,0,0); }
         .brushblack { fill:rgb(0,0,0); stroke:none; }
      ]]>
    </style>
  </defs>
  <path class="penblack"    d="M 7500 1230  A 5000 5000 0 1 0 7500 10770 A 5000 5000 0 0 1 4100 7000 
                               L 2500 6500  L 6000 6000  L 4100 5000  A 5000 5000 0 0 1 7500 1230 z" />
  <path class="penblack"    d="M 4525 3765  A 800 400 0 1 1 4905 3125 A 5000 5000 0 0 0 4525 3765 z" />
  <path class="brushblack"  d="M 4760 3260  A 250 250 0 1 0 4510 3690 A 5000 5000 0 0 1 4760 3260 z" />
</svg>  
